<mxfile host="drawio-plugin" modified="2024-07-17T21:55:56.518Z" agent="Mozilla/5.0 (Macintosh; Intel Mac OS X 10_15_7) AppleWebKit/537.36 (KHTML, like Gecko) Chrome/122.0.0.0 Safari/537.36" etag="WBrPpss6dcmGXTZBtRgc" version="22.1.22" type="embed">
  <diagram id="05X8VVfSngGYrKwr05ZF" name="Seite-1">
    <mxGraphModel dx="783" dy="705" grid="1" gridSize="10" guides="1" tooltips="1" connect="1" arrows="1" fold="1" page="1" pageScale="1" pageWidth="827" pageHeight="1169" math="0" shadow="0">
      <root>
        <mxCell id="0" />
        <mxCell id="1" parent="0" />
        <mxCell id="zcYvaqnrHBVVjW9UZq0b-1" value="LittleBrother&lt;br&gt;LittleBrotherTaskBar&lt;br&gt;&lt;br&gt;" style="shape=process;whiteSpace=wrap;html=1;backgroundOutline=1;fillColor=#dae8fc;strokeColor=#6c8ebf;verticalAlign=top;" parent="1" vertex="1">
          <mxGeometry x="312" y="260" width="156" height="90" as="geometry" />
        </mxCell>
        <mxCell id="zcYvaqnrHBVVjW9UZq0b-23" style="rounded=0;orthogonalLoop=1;jettySize=auto;html=1;exitX=0.25;exitY=0;exitDx=0;exitDy=0;dashed=1;startArrow=open;startFill=0;endArrow=none;endFill=0;" parent="1" source="zcYvaqnrHBVVjW9UZq0b-1" edge="1">
          <mxGeometry relative="1" as="geometry">
            <mxPoint x="120" y="90" as="targetPoint" />
          </mxGeometry>
        </mxCell>
        <mxCell id="zcYvaqnrHBVVjW9UZq0b-24" value="Receives status on&lt;br&gt;remaining play time" style="edgeLabel;html=1;align=center;verticalAlign=middle;resizable=0;points=[];" parent="zcYvaqnrHBVVjW9UZq0b-23" vertex="1" connectable="0">
          <mxGeometry x="-0.15" y="-1" relative="1" as="geometry">
            <mxPoint x="-73.33000000000001" y="-46.879999999999995" as="offset" />
          </mxGeometry>
        </mxCell>
        <mxCell id="zcYvaqnrHBVVjW9UZq0b-37" style="rounded=1;orthogonalLoop=1;jettySize=auto;html=1;entryX=0.5;entryY=0;entryDx=0;entryDy=0;exitX=0.5;exitY=1;exitDx=0;exitDy=0;dashed=1;" parent="1" source="zcYvaqnrHBVVjW9UZq0b-1" target="zcYvaqnrHBVVjW9UZq0b-2" edge="1">
          <mxGeometry relative="1" as="geometry">
            <Array as="points" />
          </mxGeometry>
        </mxCell>
        <mxCell id="zcYvaqnrHBVVjW9UZq0b-38" value="&lt;br&gt;Reads process status&lt;br&gt;Triggers process&lt;br&gt;termination" style="edgeLabel;html=1;align=center;verticalAlign=middle;resizable=0;points=[];" parent="zcYvaqnrHBVVjW9UZq0b-37" vertex="1" connectable="0">
          <mxGeometry x="-0.3077" y="1" relative="1" as="geometry">
            <mxPoint x="-1" y="7.84" as="offset" />
          </mxGeometry>
        </mxCell>
        <mxCell id="zcYvaqnrHBVVjW9UZq0b-2" value="Operating System" style="shape=process;whiteSpace=wrap;html=1;backgroundOutline=1;fillColor=#ffe6cc;strokeColor=#d79b00;" parent="1" vertex="1">
          <mxGeometry x="310" y="440" width="160" height="60" as="geometry" />
        </mxCell>
        <mxCell id="zcYvaqnrHBVVjW9UZq0b-4" value="Monitored User" style="shape=umlActor;verticalLabelPosition=top;verticalAlign=bottom;html=1;outlineConnect=0;labelPosition=center;align=center;" parent="1" vertex="1">
          <mxGeometry x="105" y="20" width="30" height="60" as="geometry" />
        </mxCell>
        <mxCell id="zcYvaqnrHBVVjW9UZq0b-5" value="Administrator" style="shape=umlActor;verticalLabelPosition=top;verticalAlign=bottom;html=1;outlineConnect=0;labelPosition=center;align=center;" parent="1" vertex="1">
          <mxGeometry x="375" y="20" width="30" height="60" as="geometry" />
        </mxCell>
        <mxCell id="zcYvaqnrHBVVjW9UZq0b-25" style="rounded=0;orthogonalLoop=1;jettySize=auto;html=1;entryX=0.75;entryY=0;entryDx=0;entryDy=0;dashed=1;" parent="1" target="zcYvaqnrHBVVjW9UZq0b-1" edge="1">
          <mxGeometry relative="1" as="geometry">
            <mxPoint x="670" y="90" as="sourcePoint" />
          </mxGeometry>
        </mxCell>
        <mxCell id="zcYvaqnrHBVVjW9UZq0b-26" value="Low level configuration&lt;br&gt;(e.g database)" style="edgeLabel;html=1;align=center;verticalAlign=middle;resizable=0;points=[];" parent="zcYvaqnrHBVVjW9UZq0b-25" vertex="1" connectable="0">
          <mxGeometry x="-0.2018" y="3" relative="1" as="geometry">
            <mxPoint x="44.7" y="-20.47" as="offset" />
          </mxGeometry>
        </mxCell>
        <mxCell id="zcYvaqnrHBVVjW9UZq0b-6" value="System Administrator" style="shape=umlActor;verticalLabelPosition=top;verticalAlign=bottom;html=1;outlineConnect=0;labelPosition=center;align=center;" parent="1" vertex="1">
          <mxGeometry x="660" y="20" width="30" height="60" as="geometry" />
        </mxCell>
        <mxCell id="zcYvaqnrHBVVjW9UZq0b-18" value="" style="endArrow=classic;html=1;entryX=0.5;entryY=0;entryDx=0;entryDy=0;dashed=1;" parent="1" target="zcYvaqnrHBVVjW9UZq0b-1" edge="1">
          <mxGeometry width="50" height="50" relative="1" as="geometry">
            <mxPoint x="390" y="90" as="sourcePoint" />
            <mxPoint x="440" y="390" as="targetPoint" />
            <Array as="points" />
          </mxGeometry>
        </mxCell>
        <mxCell id="zcYvaqnrHBVVjW9UZq0b-20" value="Receives status on&lt;br&gt;monitored users&lt;br&gt;Maintains users/devices&lt;br&gt;Defines rules&lt;br&gt;Defines overrides" style="edgeLabel;html=1;align=center;verticalAlign=middle;resizable=0;points=[];" parent="zcYvaqnrHBVVjW9UZq0b-18" vertex="1" connectable="0">
          <mxGeometry x="0.2884" y="-2" relative="1" as="geometry">
            <mxPoint x="2" y="-50" as="offset" />
          </mxGeometry>
        </mxCell>
        <mxCell id="zcYvaqnrHBVVjW9UZq0b-29" value="Prometheus" style="shape=process;whiteSpace=wrap;html=1;backgroundOutline=1;fillColor=#fff2cc;strokeColor=#d6b656;" parent="1" vertex="1">
          <mxGeometry x="40" y="265" width="160" height="60" as="geometry" />
        </mxCell>
        <mxCell id="zcYvaqnrHBVVjW9UZq0b-31" value="" style="endArrow=classic;startArrow=none;html=1;exitX=1;exitY=0.5;exitDx=0;exitDy=0;startFill=0;dashed=1;entryX=-0.033;entryY=0.533;entryDx=0;entryDy=0;entryPerimeter=0;" parent="1" source="zcYvaqnrHBVVjW9UZq0b-1" target="THn7kdIUyZp59maEdKy4-2" edge="1">
          <mxGeometry width="50" height="50" relative="1" as="geometry">
            <mxPoint x="510" y="420" as="sourcePoint" />
            <mxPoint x="645" y="305" as="targetPoint" />
          </mxGeometry>
        </mxCell>
        <mxCell id="zcYvaqnrHBVVjW9UZq0b-35" value="Reads/writes &lt;br&gt;configurations and state" style="edgeLabel;html=1;align=center;verticalAlign=middle;resizable=0;points=[];" parent="zcYvaqnrHBVVjW9UZq0b-31" vertex="1" connectable="0">
          <mxGeometry x="0.0621" y="-4" relative="1" as="geometry">
            <mxPoint as="offset" />
          </mxGeometry>
        </mxCell>
        <mxCell id="zcYvaqnrHBVVjW9UZq0b-41" value="Monitored&lt;br&gt;Device" style="shape=process;whiteSpace=wrap;html=1;backgroundOutline=1;fillColor=#fff2cc;strokeColor=#d6b656;" parent="1" vertex="1">
          <mxGeometry x="40" y="440" width="160" height="60" as="geometry" />
        </mxCell>
        <mxCell id="zcYvaqnrHBVVjW9UZq0b-43" value="" style="endArrow=classic;html=1;dashed=1;exitX=1;exitY=0.5;exitDx=0;exitDy=0;entryX=0;entryY=0.414;entryDx=0;entryDy=0;entryPerimeter=0;" parent="1" source="zcYvaqnrHBVVjW9UZq0b-29" target="zcYvaqnrHBVVjW9UZq0b-1" edge="1">
          <mxGeometry width="50" height="50" relative="1" as="geometry">
            <mxPoint x="210" y="380" as="sourcePoint" />
            <mxPoint x="310" y="300" as="targetPoint" />
          </mxGeometry>
        </mxCell>
        <mxCell id="zcYvaqnrHBVVjW9UZq0b-44" value="Scan&lt;br&gt;statistics" style="edgeLabel;html=1;align=center;verticalAlign=middle;resizable=0;points=[];" parent="zcYvaqnrHBVVjW9UZq0b-43" vertex="1" connectable="0">
          <mxGeometry x="-0.0171" y="4" relative="1" as="geometry">
            <mxPoint as="offset" />
          </mxGeometry>
        </mxCell>
        <mxCell id="zcYvaqnrHBVVjW9UZq0b-45" value="" style="endArrow=classic;html=1;dashed=1;exitX=0.25;exitY=1;exitDx=0;exitDy=0;entryX=0.5;entryY=0;entryDx=0;entryDy=0;" parent="1" source="zcYvaqnrHBVVjW9UZq0b-1" target="zcYvaqnrHBVVjW9UZq0b-41" edge="1">
          <mxGeometry width="50" height="50" relative="1" as="geometry">
            <mxPoint x="230" y="510" as="sourcePoint" />
            <mxPoint x="280" y="460" as="targetPoint" />
          </mxGeometry>
        </mxCell>
        <mxCell id="zcYvaqnrHBVVjW9UZq0b-46" value="Pings for activity" style="edgeLabel;html=1;align=center;verticalAlign=middle;resizable=0;points=[];" parent="zcYvaqnrHBVVjW9UZq0b-45" vertex="1" connectable="0">
          <mxGeometry x="-0.0912" y="2" relative="1" as="geometry">
            <mxPoint as="offset" />
          </mxGeometry>
        </mxCell>
        <mxCell id="xFj3ipylT9MvgsBupmHM-1" value="" style="shape=image;verticalLabelPosition=bottom;labelBackgroundColor=#ffffff;verticalAlign=top;aspect=fixed;imageAspect=0;image=data:image/png,iVBORw0KGgoAAAANSUhEUgAAAIAAAACACAYAAADDPmHLAAATrUlEQVR4Ae1dD5gkRXUfxQiicBq4nNmd3a73Xt3tukn4QsAkalDRoESjBsMyc3IaIYkGo0iCQshxd4MHahLJn/PY2dk7BCRRcvliiCRfUG5n8e6A3dmDeCSXiASVv3IooCGEfHrc5Hsz3bM1vd3TXdXVPbO7M983X3dXvXrv996rru6uP69yuf6vb4G+BfoW6Fugb4G+BfoW6Fugb4E0LCClPF4K+UYJ8F4U+FH+S4DfIUFnOo4DachcCjyJSCLir5OgDwLAxYj4B4h4HhG9aXRw8ISloEMoxrUAr5cCP0eAzxBgPeqPAu+QiH+IiKtCmS7xjHw+/5Mk6BIJOBdlDzf/WQn411KINywZ1UlQkRAfialgcMVArALALy4ZpSOAAsBpBLgnkU0ADyHieyJEdS8bANYQ4IGESrZVCL5T8vn8YPe0SiZ5xHGAEO+2aRNCPMi2TobMcmlE/FWrSvoeGShws2XIqbMDgK1p2kQCvCV1JeIIIMc5K01FF3jTXblc7oVxMHWZ5ijrd73vhmjZRFCxq7oi4ptbYMJA2k1/WAhxTFeV7iB8YGDgWAI8lKVN2AcdIKWX5T7z257ZGSn+xNjY2IvT08yMs5TyaAL4PgEeycgOLdt35Z2AAB7IWtEFefCAmZvSK0WA317AF/3Za5MWBf5XepoFcEaBl9pUwIQXAn4lAFpXkghwt4kOVssIuiQT5fP5/EusAk/wjoCIF2SidAchBPSRXrEH+6YDVDtZIKDSKwozjm6+FPbSzcC2QIGTdrwcwqXXFG5WRPhMCNzUk1Hgn/fSzZD6DSERS72mMOPp5GkhxCulkO+SiFcQ4pdQ4L8j4P8E6PEM5zEN00qAd3LZTrwDeLTezLuVhwK3dMKcKI8Af9gtxTrLpatYsZPWrHkpOc6vocBPEuBeS59kRxDwawRwFY9ees9ZFIJldN3hARh+kMjJYYV5cCZAWM8YQAI+mSG+72UoS9vGqQykEcC2Xla6A7anCOhWAvhTRDyfHOd0IcSolHI1383853NO47wGDeKfNMvg0x34ajsmO17wV2E3snE6AT6UnQLmTWuzJaApKcS7uGvWWGG3IPNgXgRQybiVSVLBHkyqd1v5ZjenuVOyqThwPc+waQOewgXLIIDrs9HJ3OZWu8sB4IyeVRjxizzTJgVfd2Q5Ojh6AgHc1Kt2wWGLg0S90PUbYOg9AOB09FIGmUII4X5xJGmyrZdln1lTnxCvC3CAddAxZTzOE0ytKWeJEWMiwMdj6pC+7RCvs6RaLkdAt/eEYlkNeCSwXO+0ljCTQI32ogT0H12uAHuEEC9vR9W7V4y1648FxIPWLNTNT0B0engmbISFGXsXb5yHIuDFzybA72auiMD9IyMjx8VH2ZuUrAMJ3J+5/QAfs2YRAnwwWwVokzXwPcKIAC7P1ob4HWuqE+C9GYF/HhFfbQ14jzFyx1MOZ2TLA9bUd/vFU/50oUeX87IwzxnNF0R6NP1KAP/iyUx8JKDPpgsY7kkMcokxIIB7UrbpNmsmISHenyLYfdaALjFGFtYLhrfKgn7LmjkQcTiNCiABv24N5BJlZHs9ZctPAzRk1SQEdsfGeWh1iSz1smrHAGYvJMCnWo6zMMsIAZ4KkJMsiQA+YxPkuvy6JbvqN5klF5cmoiGbtiWgP1ssJWEKEf2ULZA84TIhnGVXnAT9hi37sq9SMRDPmE0KUgq8NhVwy4CpG1El/MUuxuMBBf59aqYYbEyCMJ+lwmMKqYFbJowJ8OEkN1nqk2MI4GOmAHnyxDLxU2pquBNMjFoBjrGUGjCVMQd00q8EcLnKo38ebgEC2qRvX8y2P4UAH9NYeGF3lmq47ZZNjsYQPMcjsDfyF9eCa9aseWncadKI+HNx+fbpmhYAgJPitALsAxvT343s7i4W/WYnoBznzoh5v1BOCvybTrYlwPu8pWpdNZe7Fi/wxYXXFHQV3BIW3nk9BlzZU6q5b6/8XtCqCCjwsp4CuQTBAMAfqzYloEd7YTp8oCkl4FcVsM8GEvUTtS1AgP+7YFe6VZtBFgW4b38BJLcC8LtZyF0JMkjQB1TbOo7z0z2nNwLeqIC0PxrVcxpnC4gAf7BgX/p8ttIjpA0PD79iARzWORR8RJF+tqYFGuH11ferXoqqjoA7lQrQf/ZrOjcuOQE+27KzA1Nxy6VK54ZHbb35E8DFqQpcwcz94zC90gfw6VatjAjYZOK7UmX/iaXJuVNL5fkrS+W5Uus/UdtQqtw5asLTZpnKV9aP7pgpnl2eLpa8/47pwpWTXy2eWplZf6JNWcxLtbUU+Cnb/LX5EeDzC6Dos9oMAgpcWtm/qjQ5v31LufbklnKtHvXfXJ77ApcJYJVKUuW28VVT1eIXKtVCPcb/Sa4YE3vf8wobYBBg+4K98bANnsY8UOB6BUw9UdDiev0FDISdGeXwsPzSxPy28V27jjJWKKLgrl3jR01VC9tiOD2wYnClYRH1eq6ha4S4wGwOXafanAQVAgmzSCTAmgJmTxKZmyfnz2DHlsq1I2EOjpme2shjpVp40NT5brkjfJzcPX5GElsR4D7P7ryrShJexmX9cwQ5GKMpsysma4WYzo18HLgV6GFTLGHlKtXiw5VqoeHAhJWg0TpMzhSN71wSom3+4Lp1A9bfNcLs0Er3bYny41aG5olN56uViF8aNaGEkk/NFLfacLqfR6JKAPhjrxUggE+Egk8rQ10ngIDbTeRs3H6HozrN5nmpPG+tN7JSLfzI7zxr13vHh01sh4DXLFQAtKZrLCxCiF9WhNfl8PBYrII+oi3luWdsOt3P6/Jr7nqVT6T25Y7dxdOsOTv4q+EZbVD8OUj0s6oPUokOGgbMFzTqUBhdp/RSufYJv8NsX5cma2d2whAnb3Jm/YaUK0C9vLto1ISjwCe8SpDpdHt1LiAHTY5jSD+NbWcH8bPxHsDOSbsCMH+/feJcoxCf8ioA98fEKZOYxr9TGMfY1WWaxd3PFcJKC7B7/MwsKkCles6FunZc6zivUipAPZPweb7VK0ahyfkFLeiOtZ1mo6uYu3qzqQAFI1uqw8Q8KKdbibTp22anIJZ1GZSuuVOaOrpUrh3eMjF/9eby3EauRFGdRrrYwugjKsCRqWrhqfJMYePU7euvrlQLhyPoA3sJuczOmQ3asY4JcdJrBXgjjDAdrKQDwIgnjI+8ZawuY7ePP7JDx19J2Pn82ajK89Oo19ylrNImOY/q91d5b59+t2NaCSar52h/TgPAW3w+WafisXpOQB9XhZkw3zJRu091VNzzzeXaoshhnBZWvrRtNm+CL6gM35mhd/V04QJ/337l9uKmUPrgT0GvVbgvSH5UmuqTVJeHEeBtirD5KGBB+WEOi0ov7Ty4KCI4pwWVK5Vr1pdJTVUL+4OcuvPO8UW4OC2INk5akM2i0tS9ilPdT5EAWyHOpMBPRwHz52+amDstyGFx0vy8vOugspdcu896gMlr973zuCAHejj8xyDaOGnc8eTnFXWNgnc4aU3H/1EUvVG+fKVcrQjh5//bdRmVJmobghwWJ82T1VSW/jGXyzWGff1lecKIR2v7yOP6fie6Ml6EAr/M2DyZfrq419zx5PGIe5QA71B9Mzo4eELcsrHppBBvVYWYRKFg5/gdFveagRKQEm2zGQbFVz61oWDPUJVq4duqMzkdAa/2bAMObOQ0lUbnnCuZJyvukaeJe/L5yBt8xC0bmw6F+KgqJHZBhZA/33wOi/01cMtj9WPVZel8zqxVflnMCipPjw+qDmUMCDjr2QYd3PtYvXSsSqN1fntx0cuuYsLQU09+80gfCSU0zZCI6ty/x034lMq1/arDdM637jxwGTpCWSwJN1953b3jHo9N5fmTc+6sIhNsccvwG3/5a8WTPafeMHvu2Qj4Zc8B6OCNO/ede5mXr3ucrBaMVv4QtI0L2J8rSAA3eEqaxvcrTczNeg7TPXKnz2ve+I5RD8OaVcfglsna08yH5xTEdaAtOh7Ld5379Kqjh8jD9bozTxpJOHFk1gRjWzxnm7uFeGA4+JCnJE9J8tJ1jlvKtZqu4/30n/zcvedddd3B873u5G4439PZqwTcE3jD7LnnXz+74TzdO95Pz5+bHn+dIwHcueAf2qVTNhatL0LY3liFfESlcu0v/Q5Ncs2flT4RmV/ani/AXcomSvjej+xHCkPAv2vVMIFGtTTJV4BXUVr9/5X9w/WYz3xEXNvYEbQR9JpuJcSDBHjIXWnDq20ONTaObu4wuo1puUwcR/A7QWXv+LB7JyeeM2jyFcA4EfBfW/4B+ts42LVo1EEH03BvpYnZizxHJjg2J3xGOL8Rlt0BjnL+3IJhWp0lykqmjmnPcaT0qDD2XlewO3HU69Y1O84ULtJyjEtMiI94evJ0MRMeHcsQwFZPAB87Eodklq6pvTaB4+s8kBTCui2ZHOcsFauN87iznnlAx/9c17memi6+tk2ZmBeqjijwipjF4pNJgA2qENNdvEwrwObJ2VidG1LK41WcNs9Xr179sjgW43n/Ok5XaePw99M0dzFdaMnQwXP9NImvaZhOUY3JPYMmTEvl2i2aleBu7uCJ+7wHgNNUnFbPh+l1cXRuvBfcNr6qUi3crTo36nxyunBLHP5+GnTwbaqejuOc7Kexcq0KUfu9dZiXJufeF7cCbCrX/kiHt0er4rR57vHXOVZmCh+OcryXP1ktvE+Ht0fL0cFVPb1060cCeMATxG/NpgK2TNS+1akScI9hadvs8ab8JcC4h9PWERF/0xQPjySGDSd7zq9UC98y5e9+1Xgvtveb8oksR4hl1aAcLDKyUADB1sodFFYBSuWa9uTIABE5dpiKNdG545wVJEM3jSd+Kg5v+0rYNl0gXX5MP3LiicepuqXyBeABI4fe1CYM8QIvT+vofsKxsxt3e7l2K38iavGIQeyOkh1QMeucS4Cv82rcGKK0SCozhYu4z59bhanpQmPgxvuU1GKUy+UkwO+rOkkh0t1YWxXGTY8u4G7Qo8OtAXy/DfvCBAqv6VSP30PEd3cDq65MAvyGqpdueW16dVCIBZusC9AWaqmABHhvxBbv3wUA7QkZluBpsxkeHh5Tnc9T9rWZ6BZAxFNVoZRGt6MuKE16dPDtalBLnkfHaZpsuk7e1j0PWJeO/IVMQBHA/W2VIK09ajLRZmkK4WgsbT4A/EZmmpCgoiqca2JmwvuCGhbwjc7yNLBzMjWNf0t5fh5lCmAFC6Oh9qXhXdkwImDAJb0OiBXs7CDV1Q45bomhW9vwtY9BYz3VVSlBlliBaf5gkbwopGtmcBwH1HcBPl+Xz/d3BE3JI0E7jHZ974BFu4UgPpKS/iuerbtRl9JhRdYCYSUyLgE+qLYEqe5e2QGpOzZhHISxA2sv6wWm4x8eA9MjCvwH1cYE+B1TXtbL+VemNIHCx6wLimDo7cItET8UQaqdrfS5ZxuRi+f7CbzU53zugbU+RqFtFLVA0Ohb1m+niHheu6HgZjYeIr5NCPHzvK+RlHL1yMjIcUKIY8bGxl7Mfz7nNM5jGqbltY9Nw8PNbTwFvV/VO+3zwE2lHbIyOmkdOwEt3mKeyGiOmyk4ifgXbQ7rPOijPE8XplSFlec1gKa4TMoFz25KYWt4E3BhZdQ+ds+QiPjqMPo00oOaTA+L+ZE+ngbWMJ5rhfglP9ZU1/6HATFJJ4B7/OC5NpvwMi0jm8Esld22ou9wP2b3+ll2hikOk3JSiDcswmK4FsNEvpUy/nFqVggAxq0w12DiC6mq2eRDrGnoGnAiSf3jLGw3CfifkQV7kYAA/81fk1Gg9vr3pLrxtGnfvkYRFYF2DA6O2g+yEKEIB33224sXfUYU6+1sdc2apxwK/OduoeYJo7yfMQHykDbvdsL/+3nbO87rFi5qLEtb9JgyWoTbLR1C5RLATZ7zlePj3LUZWmiFZCDisLtOsa1VQoFfXFYm8IeY8yqCdOx32iwVwxHAhz07tB+X6c5r7netsslUq8mbz+fzi8KtLRVH6uJsLOVCvLvd6Q1bPI+Iv6LLb0nRj42NvawtmoXSUSNXwG7jBLAxwPHc/B/o1jhDVyrQ4m3RW63BE0KIxHH+u6JUB6HN9XvBU9Ml4mUdii7fLO50J8BvBt0RKPBAprtgpGRmd3eVRZ/Drs73dX08PyW9tdgi4oeCKkEjjZ+VjnO6FsMeIOZ9FVCoUTtaLVzjbR8F/l4PwOwdCKeccspPENCODhXhERL0gd5BHIyEhPjg4okbqvOJN31+UXDpfmpuZGhogHDR5If2b2TAG3vpbXktwOulQCWGoepw9xzxSzxvou/imBbgZyMB7QptEZpfD8/xZkmphEaNwMlx+t3dU/6vM0a4qf+cjzBmp2wORePG4g3qP2hrGQjorkYsI8c5XUp5dCe+Onk8YYSIV0bTVbxVa2eHN+74wzw3Iiq4lA6GPm1zahRvVt3aNzeGI35IgHukwAlw4GJy6CzpOK+RQ0PEs38GBgaO5T+fyyFJnMergpmWyxDgXgL87xhyvIq4FxHX952VsgV4+hYK5ODV6ubVnhMyPTZaBEEXxg0glbJpVh57/nqQAGcT0OfVgMkad61uhXmCZXHMAZa98ize4xpzk+5O6CwR4D9xUMsEleEhCXiLFFhinvl8/iU9rn4fXpgF+IVMDg//TGPjS0FFCfDbJOhC/rvnRc5zaVaF8emn9y3Qt0DfAn0L9C3Qt0DfAn0L9C2w5C3w/3frbfIoHHjvAAAAAElFTkSuQmCC;" parent="1" vertex="1">
          <mxGeometry x="350" y="300" width="40" height="40" as="geometry" />
        </mxCell>
        <mxCell id="THn7kdIUyZp59maEdKy4-2" value="Database" style="shape=cylinder2;whiteSpace=wrap;html=1;boundedLbl=1;backgroundOutline=1;size=15;fillColor=#dae8fc;strokeColor=#6c8ebf;" parent="1" vertex="1">
          <mxGeometry x="645" y="265" width="60" height="80" as="geometry" />
        </mxCell>
        <mxCell id="THn7kdIUyZp59maEdKy4-1" value="" style="shape=image;verticalLabelPosition=bottom;labelBackgroundColor=#ffffff;verticalAlign=top;aspect=fixed;imageAspect=0;image=file:///home/mr/projects/little_brother_taskbar/little_brother_taskbar/static/icons/little-brother-taskbar-logo_128x128.png;" parent="1" vertex="1">
          <mxGeometry x="394" y="300" width="40" height="40" as="geometry" />
        </mxCell>
      </root>
    </mxGraphModel>
  </diagram>
</mxfile>
